{
  "accessors": [
    {
      "bufferView": 2,
      "componentType": 5126,
      "count": 496,
      "max": [
        0.20000000298023224,
        0.20000000298023224,
        3.9000000953674316
      ],
      "min": [
        -0.20000000298023224,
        -0.20000000298023224,
        3.5
      ],
      "type": "VEC3"
    },
    {
      "bufferView": 2,
      "byteOffset": 5952,
      "componentType": 5126,
      "count": 496,
      "max": [
        1.0,
        1.0,
        1.0
      ],
      "min": [
        -1.0,
        -1.0,
        -0.9939069747924805
      ],
      "type": "VEC3"
    },
    {
      "bufferView": 1,
      "componentType": 5126,
      "count": 496,
      "max": [
        1.0,
        1.0
      ],
      "min": [
        0.0,
        0.0
      ],
      "type": "VEC2"
    },
    {
      "bufferView": 1,
      "byteOffset": 3968,
      "componentType": 5126,
      "count": 496,
      "max": [
        0.0,
        1.0
      ],
      "min": [
        0.0,
        0.0
      ],
      "type": "VEC2"
    },
    {
      "bufferView": 1,
      "byteOffset": 7936,
      "componentType": 5126,
      "count": 496,
      "max": [
        0.0,
        0.0
      ],
      "min": [
        0.0,
        0.0
      ],
      "type": "VEC2"
    },
    {
      "bufferView": 0,
      "componentType": 5125,
      "count": 2556,
      "type": "SCALAR"
    },
    {
      "bufferView": 2,
      "byteOffset": 11904,
      "componentType": 5126,
      "count": 40653,
      "max": [
        3.5746538639068604,
        3.243581533432007,
        7.254785060882568
      ],
      "min": [
        -4.372935771942139,
        -2.809880018234253,
        0.412373811006546
      ],
      "type": "VEC3"
    },
    {
      "bufferView": 2,
      "byteOffset": 499740,
      "componentType": 5126,
      "count": 40653,
      "max": [
        0.9999610781669617,
        0.9999563694000244,
        0.9999804496765137
      ],
      "min": [
        -0.9999676942825317,
        -0.9997977018356323,
        -0.9999892115592957
      ],
      "type": "VEC3"
    },
    {
      "bufferView": 3,
      "componentType": 5126,
      "count": 40653,
      "max": [
        0.9999454021453857,
        0.9999879598617554,
        0.9999164342880249,
        1.0
      ],
      "min": [
        -0.9999265670776367,
        -0.999891459941864,
        -0.9999789595603943,
        -1.0
      ],
      "type": "VEC4"
    },
    {
      "bufferView": 1,
      "byteOffset": 11904,
      "componentType": 5126,
      "count": 40653,
      "max": [
        2.0,
        1.0
      ],
      "min": [
        0.0,
        0.0
      ],
      "type": "VEC2"
    },
    {
      "bufferView": 1,
      "byteOffset": 337128,
      "componentType": 5126,
      "count": 40653,
      "max": [
        0.0,
        1.0
      ],
      "min": [
        0.0,
        0.0
      ],
      "type": "VEC2"
    },
    {
      "bufferView": 1,
      "byteOffset": 662352,
      "componentType": 5126,
      "count": 40653,
      "max": [
        0.0,
        0.0
      ],
      "min": [
        0.0,
        0.0
      ],
      "type": "VEC2"
    },
    {
      "bufferView": 1,
      "byteOffset": 987576,
      "componentType": 5126,
      "count": 40653,
      "max": [
        2.0,
        1.0
      ],
      "min": [
        0.0,
        0.0
      ],
      "type": "VEC2"
    },
    {
      "bufferView": 0,
      "byteOffset": 10224,
      "componentType": 5125,
      "count": 144057,
      "type": "SCALAR"
    },
    {
      "bufferView": 2,
      "byteOffset": 987576,
      "componentType": 5126,
      "count": 65532,
      "max": [
        3.5591557025909424,
        3.276076078414917,
        7.287845134735107
      ],
      "min": [
        -4.356845378875732,
        -2.839604377746582,
        0.4318641722202301
      ],
      "type": "VEC3"
    },
    {
      "bufferView": 2,
      "byteOffset": 1773960,
      "componentType": 5126,
      "count": 65532,
      "max": [
        0.999999463558197,
        0.9997677206993103,
        0.999876856803894
      ],
      "min": [
        -0.9999920725822449,
        -0.9998806118965149,
        -0.9999492764472961
      ],
      "type": "VEC3"
    },
    {
      "bufferView": 1,
      "byteOffset": 1312800,
      "componentType": 5126,
      "count": 65532,
      "max": [
        3.0,
        1.0
      ],
      "min": [
        0.0,
        0.0
      ],
      "type": "VEC2"
    },
    {
      "bufferView": 1,
      "byteOffset": 1837056,
      "componentType": 5126,
      "count": 65532,
      "max": [
        0.0,
        1.0
      ],
      "min": [
        0.0,
        0.0
      ],
      "type": "VEC2"
    },
    {
      "bufferView": 1,
      "byteOffset": 2361312,
      "componentType": 5126,
      "count": 65532,
      "max": [
        0.0,
        0.0
      ],
      "min": [
        0.0,
        0.0
      ],
      "type": "VEC2"
    },
    {
      "bufferView": 1,
      "byteOffset": 2885568,
      "componentType": 5126,
      "count": 65532,
      "max": [
        3.0,
        1.0
      ],
      "min": [
        0.0,
        0.0
      ],
      "type": "VEC2"
    },
    {
      "bufferView": 0,
      "byteOffset": 586452,
      "componentType": 5125,
      "count": 242196,
      "type": "SCALAR"
    },
    {
      "bufferView": 2,
      "byteOffset": 2560344,
      "componentType": 5126,
      "count": 12651,
      "max": [
        3.606706142425537,
        3.194720506668091,
        6.6617207527160645
      ],
      "min": [
        -4.406073570251465,
        -2.575385093688965,
        0.3755895793437958
      ],
      "type": "VEC3"
    },
    {
      "bufferView": 2,
      "byteOffset": 2712156,
      "componentType": 5126,
      "count": 12651,
      "max": [
        0.9999036192893982,
        0.9998180270195007,
        0.9999599456787109
      ],
      "min": [
        -0.99968022108078,
        -0.9996584057807922,
        -0.9998201727867126
      ],
      "type": "VEC3"
    },
    {
      "bufferView": 1,
      "byteOffset": 3409824,
      "componentType": 5126,
      "count": 12651,
      "max": [
        3.0,
        1.0
      ],
      "min": [
        0.0,
        0.0
      ],
      "type": "VEC2"
    },
    {
      "bufferView": 1,
      "byteOffset": 3511032,
      "componentType": 5126,
      "count": 12651,
      "max": [
        0.0,
        1.0
      ],
      "min": [
        0.0,
        0.0
      ],
      "type": "VEC2"
    },
    {
      "bufferView": 1,
      "byteOffset": 3612240,
      "componentType": 5126,
      "count": 12651,
      "max": [
        0.0,
        0.0
      ],
      "min": [
        0.0,
        0.0
      ],
      "type": "VEC2"
    },
    {
      "bufferView": 1,
      "byteOffset": 3713448,
      "componentType": 5126,
      "count": 12651,
      "max": [
        3.0,
        1.0
      ],
      "min": [
        0.0,
        0.0
      ],
      "type": "VEC2"
    },
    {
      "bufferView": 0,
      "byteOffset": 1555236,
      "componentType": 5125,
      "count": 58368,
      "type": "SCALAR"
    },
    {
      "bufferView": 2,
      "byteOffset": 2863968,
      "componentType": 5126,
      "count": 65532,
      "max": [
        4.128529071807861,
        3.7480742931365967,
        8.188539505004883
      ],
      "min": [
        -4.55959939956665,
        -3.6463539600372314,
        -0.2056005299091339
      ],
      "type": "VEC3"
    },
    {
      "bufferView": 2,
      "byteOffset": 3650352,
      "componentType": 5126,
      "count": 65532,
      "max": [
        0.9999518990516663,
        0.9999575018882751,
        0.9999818801879883
      ],
      "min": [
        -0.9999504089355469,
        -0.9999619126319885,
        -0.999984085559845
      ],
      "type": "VEC3"
    },
    {
      "bufferView": 1,
      "byteOffset": 3814656,
      "componentType": 5126,
      "count": 65532,
      "max": [
        2.202828884124756,
        1.0
      ],
      "min": [
        -1.0141491889953613,
        0.0
      ],
      "type": "VEC2"
    },
    {
      "bufferView": 1,
      "byteOffset": 4338912,
      "componentType": 5126,
      "count": 65532,
      "max": [
        0.0,
        1.0
      ],
      "min": [
        0.0,
        0.0
      ],
      "type": "VEC2"
    },
    {
      "bufferView": 1,
      "byteOffset": 4863168,
      "componentType": 5126,
      "count": 65532,
      "max": [
        0.0,
        0.0
      ],
      "min": [
        0.0,
        0.0
      ],
      "type": "VEC2"
    },
    {
      "bufferView": 0,
      "byteOffset": 1788708,
      "componentType": 5125,
      "count": 228900,
      "type": "SCALAR"
    },
    {
      "bufferView": 2,
      "byteOffset": 4436736,
      "componentType": 5126,
      "count": 53914,
      "max": [
        3.756303310394287,
        3.703526496887207,
        7.323709011077881
      ],
      "min": [
        -4.988168716430664,
        -3.0498082637786865,
        -0.1917242705821991
      ],
      "type": "VEC3"
    },
    {
      "bufferView": 2,
      "byteOffset": 5083704,
      "componentType": 5126,
      "count": 53914,
      "max": [
        0.999994695186615,
        0.9999829530715942,
        0.9999880790710449
      ],
      "min": [
        -0.9999195337295532,
        -0.9999513626098633,
        -0.9998027682304382
      ],
      "type": "VEC3"
    },
    {
      "bufferView": 1,
      "byteOffset": 5387424,
      "componentType": 5126,
      "count": 53914,
      "max": [
        2.010242223739624,
        1.0
      ],
      "min": [
        -0.9083729386329651,
        0.0
      ],
      "type": "VEC2"
    },
    {
      "bufferView": 1,
      "byteOffset": 5818736,
      "componentType": 5126,
      "count": 53914,
      "max": [
        0.0,
        1.0
      ],
      "min": [
        0.0,
        0.0
      ],
      "type": "VEC2"
    },
    {
      "bufferView": 1,
      "byteOffset": 6250048,
      "componentType": 5126,
      "count": 53914,
      "max": [
        0.0,
        0.0
      ],
      "min": [
        0.0,
        0.0
      ],
      "type": "VEC2"
    },
    {
      "bufferView": 0,
      "byteOffset": 2704308,
      "componentType": 5125,
      "count": 226557,
      "type": "SCALAR"
    },
    {
      "bufferView": 2,
      "byteOffset": 5730672,
      "componentType": 5126,
      "count": 400,
      "max": [
        47.629920959472656,
        46.77350997924805,
        46.298038482666016
      ],
      "min": [
        -45.64051818847656,
        -43.2112922668457,
        -39.30491638183594
      ],
      "type": "VEC3"
    },
    {
      "bufferView": 2,
      "byteOffset": 5735472,
      "componentType": 5126,
      "count": 400,
      "max": [
        0.9938953518867493,
        0.9948879480361938,
        0.9991876482963562
      ],
      "min": [
        -0.989683210849762,
        -0.9957485795021057,
        -0.999186098575592
      ],
      "type": "VEC3"
    },
    {
      "bufferView": 1,
      "byteOffset": 6681360,
      "componentType": 5126,
      "count": 400,
      "max": [
        1.0,
        1.0
      ],
      "min": [
        0.0,
        0.0
      ],
      "type": "VEC2"
    },
    {
      "bufferView": 1,
      "byteOffset": 6684560,
      "componentType": 5126,
      "count": 400,
      "max": [
        0.0,
        1.0
      ],
      "min": [
        0.0,
        0.0
      ],
      "type": "VEC2"
    },
    {
      "bufferView": 1,
      "byteOffset": 6687760,
      "componentType": 5126,
      "count": 400,
      "max": [
        0.0,
        0.0
      ],
      "min": [
        0.0,
        0.0
      ],
      "type": "VEC2"
    },
    {
      "bufferView": 0,
      "byteOffset": 3610536,
      "componentType": 5125,
      "count": 600,
      "type": "SCALAR"
    }
  ],
  "asset": {
    "extras": {
      "author": "3dhdscan (https://sketchfab.com/3dhdscan)",
      "license": "CC-BY-4.0 (http://creativecommons.org/licenses/by/4.0/)",
      "source": "https://sketchfab.com/3d-models/alien-neuron-network-core-9b1af8411cf94819af3c60fef1ab6c36",
      "title": "Alien neuron network core"
    },
    "generator": "Sketchfab-12.67.0",
    "version": "2.0"
  },
  "bufferViews": [
    {
      "buffer": 0,
      "byteLength": 3612936,
      "name": "floatBufferViews",
      "target": 34963
    },
    {
      "buffer": 0,
      "byteLength": 6690960,
      "byteOffset": 3612936,
      "byteStride": 8,
      "name": "floatBufferViews",
      "target": 34962
    },
    {
      "buffer": 0,
      "byteLength": 5740272,
      "byteOffset": 10303896,
      "byteStride": 12,
      "name": "floatBufferViews",
      "target": 34962
    },
    {
      "buffer": 0,
      "byteLength": 650448,
      "byteOffset": 16044168,
      "byteStride": 16,
      "name": "floatBufferViews",
      "target": 34962
    }
  ],
  "buffers": [
    {
      "byteLength": 16694616,
      "uri": "scene.bin"
    }
  ],
  "extensionsRequired": [
    "KHR_materials_pbrSpecularGlossiness"
  ],
  "extensionsUsed": [
    "KHR_materials_pbrSpecularGlossiness"
  ],
  "images": [
    {
      "uri": "textures/absrtract_02_diffuse.jpeg"
    },
    {
      "uri": "textures/absrtract_02_emissive.jpeg"
    },
    {
      "uri": "textures/absrtract_02_normal.jpeg"
    },
    {
      "uri": "textures/absrtract_03_diffuse.jpeg"
    },
    {
      "uri": "textures/bcg_unka_diffuse.jpeg"
    }
  ],
  "materials": [
    {
      "doubleSided": true,
      "extensions": {
        "KHR_materials_pbrSpecularGlossiness": {
          "diffuseFactor": [
            0.376714,
            0.329473,
            0.250737,
            1.0
          ],
          "glossinessFactor": 0.1559426844,
          "specularFactor": [
            0.0,
            0.0,
            0.0
          ]
        }
      },
      "name": "Default"
    },
    {
      "emissiveFactor": [
        0.07902896765506628,
        0.07902896765506628,
        0.07902896765506628
      ],
      "emissiveTexture": {
        "index": 1
      },
      "extensions": {
        "KHR_materials_pbrSpecularGlossiness": {
          "diffuseFactor": [
            1.0,
            1.0,
            1.0,
            1.0
          ],
          "diffuseTexture": {
            "index": 0
          },
          "glossinessFactor": 0.929115018,
          "specularFactor": [
            0.08493278090897113,
            0.04073782131294023,
            0.04073782131294023
          ]
        }
      },
      "name": "absrtract_02",
      "normalTexture": {
        "index": 2
      }
    },
    {
      "doubleSided": true,
      "extensions": {
        "KHR_materials_pbrSpecularGlossiness": {
          "diffuseFactor": [
            1.0,
            1.0,
            1.0,
            1.0
          ],
          "diffuseTexture": {
            "index": 3
          },
          "glossinessFactor": 0.1559426844,
          "specularFactor": [
            0.8140345327,
            0.2164772323,
            0.011501759
          ]
        }
      },
      "name": "absrtract_03"
    },
    {
      "doubleSided": true,
      "extensions": {
        "KHR_materials_pbrSpecularGlossiness": {
          "diffuseFactor": [
            0.9725489999999998,
            0.02352939999999999,
            0.023529700000000032,
            1.0
          ],
          "glossinessFactor": 0.9048725937352036,
          "specularFactor": [
            0.0139635028,
            0.0139635028,
            0.0139635028
          ]
        }
      },
      "name": "material"
    },
    {
      "extensions": {
        "KHR_materials_pbrSpecularGlossiness": {
          "diffuseFactor": [
            1.0,
            1.0,
            1.0,
            1.0
          ],
          "diffuseTexture": {
            "index": 4
          },
          "glossinessFactor": 0.0,
          "specularFactor": [
            0.0,
            0.0,
            0.0
          ]
        }
      },
      "name": "bcg_unka"
    }
  ],
  "meshes": [
    {
      "name": "unka_Default_0",
      "primitives": [
        {
          "attributes": {
            "NORMAL": 1,
            "POSITION": 0,
            "TEXCOORD_0": 2,
            "TEXCOORD_1": 3,
            "TEXCOORD_2": 4
          },
          "indices": 5,
          "material": 0,
          "mode": 4
        }
      ]
    },
    {
      "name": "unka_absrtract_02_0",
      "primitives": [
        {
          "attributes": {
            "NORMAL": 7,
            "POSITION": 6,
            "TANGENT": 8,
            "TEXCOORD_0": 9,
            "TEXCOORD_1": 10,
            "TEXCOORD_2": 11,
            "TEXCOORD_3": 12
          },
          "indices": 13,
          "material": 1,
          "mode": 4
        }
      ]
    },
    {
      "name": "unka_absrtract_03_0",
      "primitives": [
        {
          "attributes": {
            "NORMAL": 15,
            "POSITION": 14,
            "TEXCOORD_0": 16,
            "TEXCOORD_1": 17,
            "TEXCOORD_2": 18,
            "TEXCOORD_3": 19
          },
          "indices": 20,
          "material": 2,
          "mode": 4
        }
      ]
    },
    {
      "name": "unka_absrtract_03_0",
      "primitives": [
        {
          "attributes": {
            "NORMAL": 22,
            "POSITION": 21,
            "TEXCOORD_0": 23,
            "TEXCOORD_1": 24,
            "TEXCOORD_2": 25,
            "TEXCOORD_3": 26
          },
          "indices": 27,
          "material": 2,
          "mode": 4
        }
      ]
    },
    {
      "name": "unka_red_0",
      "primitives": [
        {
          "attributes": {
            "NORMAL": 29,
            "POSITION": 28,
            "TEXCOORD_0": 30,
            "TEXCOORD_1": 31,
            "TEXCOORD_2": 32
          },
          "indices": 33,
          "material": 3,
          "mode": 4
        }
      ]
    },
    {
      "name": "unka_red_0",
      "primitives": [
        {
          "attributes": {
            "NORMAL": 35,
            "POSITION": 34,
            "TEXCOORD_0": 36,
            "TEXCOORD_1": 37,
            "TEXCOORD_2": 38
          },
          "indices": 39,
          "material": 3,
          "mode": 4
        }
      ]
    },
    {
      "name": "unka1_bcg_unka_0",
      "primitives": [
        {
          "attributes": {
            "NORMAL": 41,
            "POSITION": 40,
            "TEXCOORD_0": 42,
            "TEXCOORD_1": 43,
            "TEXCOORD_2": 44
          },
          "indices": 45,
          "material": 4,
          "mode": 4
        }
      ]
    }
  ],
  "nodes": [
    {
      "children": [
        1
      ],
      "matrix": [
        1.0,
        0.0,
        0.0,
        0.0,
        0.0,
        2.220446049250313e-16,
        -1.0,
        0.0,
        0.0,
        1.0,
        2.220446049250313e-16,
        0.0,
        0.0,
        0.0,
        0.0,
        1.0
      ],
      "name": "Sketchfab_model"
    },
    {
      "children": [
        2
      ],
      "matrix": [
        1.0,
        0.0,
        0.0,
        0.0,
        0.0,
        0.0,
        1.0,
        0.0,
        0.0,
        -1.0,
        0.0,
        0.0,
        0.0,
        0.0,
        0.0,
        1.0
      ],
      "name": "unka1-poz1.fbx"
    },
    {
      "children": [
        3,
        10
      ],
      "name": "RootNode"
    },
    {
      "children": [
        4,
        5,
        6,
        7,
        8,
        9
      ],
      "matrix": [
        100.0,
        0.0,
        0.0,
        0.0,
        0.0,
        2.220446049250313e-14,
        -100.0,
        0.0,
        0.0,
        100.0,
        2.220446049250313e-14,
        0.0,
        0.0,
        0.0,
        0.0,
        1.0
      ],
      "name": "unka"
    },
    {
      "mesh": 0,
      "name": "unka_Default_0"
    },
    {
      "mesh": 1,
      "name": "unka_absrtract_02_0"
    },
    {
      "mesh": 2,
      "name": "unka_absrtract_03_0"
    },
    {
      "mesh": 3,
      "name": "unka_absrtract_03_0"
    },
    {
      "mesh": 4,
      "name": "unka_red_0"
    },
    {
      "mesh": 5,
      "name": "unka_red_0"
    },
    {
      "children": [
        11
      ],
      "matrix": [
        100.0,
        0.0,
        0.0,
        0.0,
        0.0,
        2.220446049250313e-14,
        -100.0,
        0.0,
        0.0,
        100.0,
        2.220446049250313e-14,
        0.0,
        0.0,
        0.0,
        0.0,
        1.0
      ],
      "name": "unka1"
    },
    {
      "mesh": 6,
      "name": "unka1_bcg_unka_0"
    }
  ],
  "samplers": [
    {
      "magFilter": 9729,
      "minFilter": 9987,
      "wrapS": 10497,
      "wrapT": 10497
    }
  ],
  "scene": 0,
  "scenes": [
    {
      "name": "Sketchfab_Scene",
      "nodes": [
        0
      ]
    }
  ],
  "textures": [
    {
      "sampler": 0,
      "source": 0
    },
    {
      "sampler": 0,
      "source": 1
    },
    {
      "sampler": 0,
      "source": 2
    },
    {
      "sampler": 0,
      "source": 3
    },
    {
      "sampler": 0,
      "source": 4
    }
  ]
}
